# xmcd
#
# Track frame offsets:
#	150
#	14969
#	31403
#	61315
#	79692
#	93534
#	117717
#	136408
#	152519
#	167055
#	179140
#	192782
#	208955
#	237664
#	251311
#
# Disc length: 3598 seconds
# Revision: 0
# Processed by: cddbd v1.5.2PL0 Copyright (c) Steve Scherf et al.
# Submitted via: dBpowerAMP V12.0
#
DISCID=dc0e0c0f
DTITLE=Ligação Direta - De Volta às estradas
DYEAR=2008
DGENRE=Blues
TTITLE0=De Volta Às Estradas
TTITLE1=Estradeiro
TTITLE2=Loucura e Prazer
TTITLE3=Tudo Certo
TTITLE4=Rabo Duro
TTITLE5=Dia de Stress Blues
TTITLE6=O Jogador
TTITLE7=Agradar Susie
TTITLE8=Largado Na Chuva
TTITLE9=Tudo Pela Rock'n'Roll
TTITLE10=Homem Alinhado
TTITLE11=Sweet Mary Beth
TTITLE12=Não Caia Nessa
TTITLE13=Por Isso Eu Rodo
TTITLE14=Largo Tudo e Vou Pescar
EXTD=
EXTT0=
EXTT1=
EXTT2=
EXTT3=
EXTT4=
EXTT5=
EXTT6=
EXTT7=
EXTT8=
EXTT9=
EXTT10=
EXTT11=
EXTT12=
EXTT13=
EXTT14=
PLAYORDER=
